<?xml version="1.0" encoding="utf-8"?>
<!-- Svg Vector Icons : http://www.onlinewebfonts.com/icon -->
<!DOCTYPE svg PUBLIC "-//W3C//DTD SVG 1.1//EN" "http://www.w3.org/Graphics/SVG/1.1/DTD/svg11.dtd">
<svg version="1.1" xmlns="http://www.w3.org/2000/svg" xmlns:xlink="http://www.w3.org/1999/xlink" x="0px" y="0px" viewBox="0 0 1000 1000" enable-background="new 0 0 1000 1000" xml:space="preserve">
<metadata> Svg Vector Icons : http://www.onlinewebfonts.com/icon </metadata>
<g><g transform="translate(0.000000,512.000000) scale(0.100000,-0.100000)"><path d="M7412.9,5004.9c-120.7-7.7-291.2-19.2-377.5-26.8l-157.1-15.3l306.6-183.9c1086.4-659.1,1904.5-1454.2,2513.8-2452.4c130.3-212.7,143.7-229.9,153.3-182c5.7,30.6,23,264.4,34.5,523.1c32.6,620.8,3.8,1444.6-55.6,1609.4c-65.1,187.8-120.7,274-260.6,413.8c-233.7,233.7-387,291.2-854.5,314.2C8338.3,5026,7744.3,5024.1,7412.9,5004.9z"/><path d="M5592.7,4707.9c-1195.6-350.6-2205.3-971.4-3209.3-1975.4C1385.2,1732.4,751,703.5,406.1-484.4c-36.4-126.4-67.1-256.7-69-289.3c-1.9-74.7,333.4-756.8,513.5-1042.3c145.6-229.9,335.3-498.2,352.5-498.2c5.8,1.9,67.1,101.5,136,224.2c124.5,222.2,538.4,864.1,689.8,1069.1l80.5,109.2L1896.8-697c-182,183.9-212.7,226.1-212.7,277.8c0,82.4,72.8,155.2,155.2,155.2c51.7,0,92-30.7,258.7-195.4L2297.2-653l42.2,55.6c24.9,30.6,105.4,132.2,182,228l136,172.4L2435.2,27.2c-203.1,205-222.3,231.8-222.3,295.1c0,53.6,13.4,80.5,55.6,116.9c90.1,78.5,143.7,53.6,383.2-185.9l210.8-208.8l176.3,205l176.3,205l-220.3,222.3c-193.5,197.3-218.4,229.9-218.4,289.3c0,86.2,65.1,149.4,153.3,149.4c55.6,0,90.1-26.8,277.8-210.8c116.9-115,218.4-210.8,224.2-210.8c5.7,0,93.9,90.1,197.3,201.2l187.8,203.1L3602,1314.7c-187.8,191.6-212.7,224.2-212.7,283.6c0,86.2,65.1,149.4,153.3,149.4c55.6,0,92-26.8,279.7-212.7l216.5-214.6l149.4,136c82.4,72.8,174.4,160.9,205,193.5l57.5,59.4l-205,208.8c-185.9,185.9-205,214.6-205,277.8c0,92,53.6,145.6,147.5,145.6c63.2,0,90-19.2,285.5-212.7l214.6-212.7l193.5,168.6l193.5,168.6l-201.2,205c-189.7,191.6-201.2,206.9-201.2,281.6c0,61.3,11.5,86.2,49.8,116.9c95.8,74.7,130.3,57.5,371.7-182l226.1-222.3l197.3,159c109.2,86.2,206.9,164.8,218.4,174.4c11.5,9.6-55.6,90-168.6,203.1c-220.3,222.3-243.3,275.9-151.4,367.9c99.6,99.6,136,84.3,377.5-155.2l214.6-210.8l293.1,201.2c306.6,212.7,745.3,492.4,963.7,613.1c70.9,40.2,128.4,80.5,128.4,90.1c0,24.9-454.1,320-737.6,479c-281.7,157.1-779.8,400.4-818.1,400.4C5824.5,4773.1,5713.4,4744.3,5592.7,4707.9z"/><path d="M7401.4,3527.7C7000.9,3292,6361,2876.3,6255.6,2780.5c-11.5-9.6,51.7-90,157.1-197.3c147.5-149.5,176.3-187.8,176.3-239.5c0-82.4-72.8-155.2-155.2-155.2c-51.7,0-92,30.7-258.7,193.5l-197.4,193.5l-201.2-155.2c-111.1-86.2-206.9-166.7-214.6-176.3c-7.7-11.5,61.3-95.8,153.3-187.8c147.5-147.5,164.8-172.4,164.8-235.7c0-53.6-11.5-80.5-49.8-109.2c-97.7-76.6-145.6-57.5-348.7,139.9l-187.8,182l-185.8-162.9c-101.5-90-185.8-168.6-185.8-176.3c0-5.8,72.8-86.2,162.9-178.2c143.7-145.6,162.9-174.4,162.9-235.7c0-74.7-51.7-143.7-109.2-147.5c-88.1-5.7-122.6,15.3-287.4,178.2l-174.3,174.3l-203.1-187.8c-111.1-105.4-203.1-193.5-203.1-199.3c0-3.8,72.8-84.3,162.9-176.3c143.7-145.6,162.9-174.4,162.9-235.7c0-74.7-51.7-143.7-111.1-147.5c-84.3-5.7-120.7,15.3-275.9,170.5l-166.7,164.8l-42.2-38.3c-23-19.2-109.2-113-195.4-205l-153.3-168.6l166.7-168.6c134.1-138,164.8-180.1,164.8-228c0-88.1-19.2-120.7-84.3-147.5c-84.3-36.4-132.2-9.6-308.5,164.8l-155.2,151.3L3259,31.1l-178.2-205l172.4-176.3c195.4-199.2,216.5-256.7,126.5-344.9c-88.1-90.1-147.5-69-335.3,115l-166.7,162.9l-160.9-205c-90-115-170.5-218.4-178.2-233.7c-11.5-17.2,38.3-80.5,168.6-210.8c220.3-220.3,241.4-274,147.5-367.9c-92-92-147.5-70.9-348.7,128.4c-92,92-174.4,160.9-185.8,153.3c-49.8-30.7-544.1-793.2-768.3-1186L1412-2582.3l95.8-111.1c51.7-59.4,197.4-208.8,321.9-329.6c548-530.7,1207.1-982.9,1994.5-1366.1l314.2-151.4l128.4,32.6c208.8,51.7,580.5,176.3,825.8,277.8C6085.1-3822,6953-3197.4,7857.4-2237.5c867.9,917.8,1440.8,1912.1,1749.3,3023.4l65.1,235.7l-72.8,168.6c-394.7,892.8-986.7,1701.4-1688,2304.9c-120.7,103.5-224.2,187.8-229.9,187.8C7673.4,3682.9,7548.9,3612,7401.4,3527.7z"/><path d="M143.7-1898.3c-34.5-130.3-55.6-1013.6-36.4-1509.8c19.2-482.8,24.9-534.6,67.1-653.3c130.3-350.6,417.7-601.6,770.2-674.4c285.5-61.3,1645.8-57.5,2075,3.8l92,13.4l-162.9,93.9c-249.1,141.8-731.9,469.4-965.6,651.4C1293.2-3433,726.1-2796.9,279.7-2061.2C176.2-1890.7,153.2-1863.9,143.7-1898.3z"/></g></g>
</svg>