<?xml version="1.0" encoding="UTF-8" standalone="no"?>
<svg viewBox="0 0 1000 1000" xmlns="http://www.w3.org/2000/svg">
<defs>
<linearGradient gradientTransform="matrix(.93679,-.85929,.85927,.93681,-400.209,462.78557)" gradientUnits="userSpaceOnUse" id="linearGradient10949" x1="509.97107" x2="509.89749" y1="544.7467" y2="278.81351">
<stop offset="0" stop-color="#3c1a0f"/>
<stop offset="1" stop-color="#d7bbb3"/>
</linearGradient>
<linearGradient gradientTransform="matrix(.93679,-.85929,.85927,.93681,-400.209,462.78557)" gradientUnits="userSpaceOnUse" id="linearGradient10954" x2="0" y1="750.28534" y2="353.79749">
<stop offset="0" stop-color="#391b0f"/>
<stop offset=".10989" stop-color="#5b2318"/>
<stop offset=".27473" stop-color="#5b2318"/>
<stop offset="1" stop-color="#905036"/>
</linearGradient>
</defs>
<title>American Football</title>
<path d="m260.22998,242.48137c209.93582-192.5681 443.75477-194.94937 509.8557-192.0963 54.62038,2.35753 100.80717,8.00242 121.58694,12.39678 34.72414,7.3432 25.19502,7.32697 46.70206,33.00754s34.24941,26.98724 35.02154,68.38755c.63801,34.20985 5.9807,206.32797-60.34965,357.27939s-113.02769,188.57493-173.27662,243.83953-197.57455,142.87251-350.56932,174.1169c-79.2691,16.18824-298.03264,7.65025-312.03273-10.33808-5.63509-8.26187-14.15898-17.48858-20.92996-22.50579-15.18788-16.55847-25.36647-51.2168-26.94786-79.86799s-13.14812-189.88967 60.54757-346.12358 170.39233-238.09595 170.39233-238.09595z" fill="url(#linearGradient10954)" stroke="#391b0f" stroke-width="2"/>
<path d="m81.75522,498.51796c-17.3289,40.26708-29.25098,80.50171-37.38646,118.38716 4.81833,9.88876 10.69158,21.77292 12.3872,24.37738 2.65618,4.07989 9.86584,7.23 9.86584,7.23s-.24233,5.6715 6.79062,13.33911 100.30898,117.63022 135.91708,158.81973 60.58173,66.04874 63.82771,69.58765c1.85929,2.02707 5.42593,4.42909 8.25249,6.17628 15.54338-4.29812 40.82795-11.57423 59.30004-18.33097 25.78555-9.43187 41.73328-15.98019 51.25389-20.16845-.92898-3.52649-2.81866-8.44018-6.47019-10.99162-6.04858-4.22632-101.42231-104.61317-149.4245-160.49928s-118.76749-135.42098-122.01348-138.95988-3.42299-13.19377-3.42299-13.19377-2.97467,3.81788-10.49979-5.57037-13.34752-19.2363-15.9549-24.44702c-.62991-1.25888-1.48082-3.35189-2.42257-5.75595z" fill="#fff"/>
<path d="m552.32529,77.76661c7.63956,1.44101 16.46761,3.70363 22.29898,7.09185 10.11737,5.87855 7.2293,4.24664 15.93404,12.55288 6.15741,5.87551 3.64879,6.79997 1.64447,6.84703 3.42627.19543 12.98556.99306 15.66045,3.90933 3.24598,3.5389 82.22576,81.73805 133.76678,134.3781s131.27214,147.86139 134.96149,154.25175c1.93948,3.35937 5.35639,5.89185 8.19194,7.57949 6.30148-11.34514 20.92764-38.30517 29.71813-59.92671 6.41499-15.77865 11.61403-29.35213 15.13693-38.68152-.26239-4.25334-.85961-8.28337-2.19444-9.73866-3.24597-3.53888-55.74614-68.37532-93.71344-107.40078s-101.23393-98.67436-108.26688-106.34196-17.78238-8.16213-17.78238-8.16213-.39445-6.58632-4.19542-9.62821c-7.62553-6.10259-16.85096-9.37995-24.79421-11.16396-36.08498,3.66081-79.18376,10.87782-126.36644,24.43349z" fill="#fff"/>
<path d="m289.82407,288.47182c-136.37534,126.89304-189.8672,234.24091-226.84426,356.48139-37.564,124.18079-30.1752,190.65191-30.60623,206.88099-.2994,11.27373 3.80954,20.46549 11.45653,33.71147-5.99521-11.03942-8.77459-17.67929-8.31179-28.40232 .68835-15.94855-7.82818-85.52976 31.19394-208.12086s94.53388-230.37315 235.76477-359.92021 236.20296-175.72864 383.61952-209.3013c139.80226-31.83858 222.74995-10.3978 235.54023-5.55067-1.2528-1.15898-2.28615-1.96447-2.96324-2.3491-5.51239-3.13144-87.15846-27.85121-236.2826,3.85977s-244.77846,77.14875-386.00935,206.69579c-2.20673,2.02418-4.39288,4.00084-6.55753,6.01505zm-232.20968,620.85335c4.25559,4.72633 14.20197,13.91378 30.74835,18.47816 40.74876,11.24071 150.5827-9.99933 255.01346-44.38242s242.9143-113.65829 328.94327-192.57019 131.33491-125.92511 204.77168-257.42404 82.9364-214.75933 89.192-261.42861c4.80064-35.8148-2.70914-50.40223-7.88548-57.02305 4.85488,6.4989 10.54816,20.13343 3.90793,57.32934-8.17256,45.77961-15.72989,125.31454-90.20896,255.67711s-119.87049,177.28255-205.89946,256.19445-223.73823,159.03131-327.17104,194.50238-214.00756,55.90346-253.96622,45.52416c-14.95859-3.88551-23.44862-10.75275-27.44553-14.87729zm900.78328-794.35015c-.3498-.44736-.66239-.87296-.98631-1.25152 .31958.38304.6541.80699.98631,1.25152zm-4.38923-5.13792c.45698.53357 1.00195,1.20989 1.3109,1.54674 .27987.30513.64798.70457.96669,1.05393-.38192-.41639-1.62793-1.86474-2.27759-2.60067z" fill="url(#linearGradient10949)" opacity=".45588"/>
<path d="m146.14492,542.94509c-7.17967-.30989-10.21239-1.46838-5.62277-12.57391s28.10577-103.60232 170.40723-234.13136 251.72297-165.88266 266.66154-166.77929 9.50037,6.06187 8.03201,16.27451 6.21325,46.51027-7.29377,61.85512-21.5758,23.73118-21.5758,23.73118 5.25742-14.6733-5.04726-25.90789-97.69652,25.58368-208.43487,127.16077-134.58306,142.16583-131.0559,155.6769c3.2648,12.506 32.7328,3.46801 32.7328,3.46801s-5.34593,16.72469-18.58733,25.9154c-23.59212,16.37502-80.21588,25.31056-80.21588,25.31056z" fill="none" opacity=".34314" stroke="#000" stroke-dasharray="32.00000151, 4.00000018" stroke-width="4"/>
<path d="m104.07456,479.3177c-.30988,7.17985-2.61006,18.66035 6.14438,12.09547 9.61361-7.20919 36.68572-88.3279 178.98718-218.85695s230.02436-164.14599 243.43415-170.79013c10.83632-5.36906-3.34632-7.3538-15.12698-5.42227-49.72298,8.15243-178.29289,80.41164-249.81705,153.83539-120.8431,119.45011-150.30126,188.03081-163.62168,229.13849z" fill="none" opacity=".34314" stroke="#000" stroke-dasharray="32.00000151, 4.00000018" stroke-width="4"/>
<path d="m142.44823,452.04543c-4.65014-5.11623-5.48695-8.09277.88539-18.55629s14.69792-20.83383 21.39548-27.85578 14.23192-11.06736 18.92968-17.20582 11.72144-19.99699 18.46561-27.99558 19.90625-17.15926 23.0691-21.9027 7.07035-14.83512 19.39565-26.97234 20.37125-16.64763 24.46416-20.36782 7.30236-9.44026 19.16262-22.08909 19.85965-16.18262 26.51061-22.22791 4.41908-10.55674 20.13925-22.04251 25.62621-13.94973 31.76555-19.53 11.48845-15.11374 23.58073-22.36773 21.39353-7.29959 29.48611-12.78666 13.3951-14.0439 21.9993-19.99598 33.25378-19.94844 39.57853-19.15721 10.69627,1.48926 15.34639,6.6055-4.7909,8.09178-13.34851,13.06724-18.23161,12.83426-22.32452,16.55445-16.37158,14.88072-22.41771,18.50773-18.55684,9.39268-29.11428,15.25158-15.39496,14.92735-25.58059,23.25116-26.13781,14.41476-30.27731,19.11159-16.55798,18.78732-22.18569,23.90258-18.27822,13.81091-23.39434,18.46112-16.65119,20.74064-22.74394,25.34427-16.23176,11.9508-23.95254,19.90281-12.18645,19.48535-20.41884,27.90238-18.37142,15.76419-25.11557,23.76278-8.09357,15.76518-15.90755,25.67049-15.95316,16.36899-23.20893,24.83262-12.51167,16.04379-16.27936,23.20554-6.37234,10.46353-9.1158,6.41712-8.78863-10.69749-8.78863-10.69749z" fill="#eee" stroke="#b8b8b8"/>
<path d="m134.20541,442.79762c-2.20815-2.94985-5.20455-5.67423 1.41428-14.73071s9.50155-9.71055 11.21404-7.30111 10.56753,13.69086 17.73244,22.04474 18.63244,19.22903 21.85431,22.74164 3.29084,7.92718 3.3598,12.34173 .72304,7.29735-5.20077,6.26315-11.80294-3.10449-18.29141-9.09365-20.68221-19.8365-23.63389-23.59698-8.4488-8.66881-8.4488-8.66881z" fill="#fff" stroke="#b8b8b8"/>
<path d="m172.50038,391.2521c-1.93796-3.19768-2.50261-8.15264 1.07701-12.92873s5.80823-8.31294 8.12821-7.9533 3.78463,2.49889 6.24062,5.71895 6.33195,9.61545 15.25407,19.34272 15.50001,13.64423 19.21755,17.69725 9.57428,6.64136 8.62955,10.49314-1.3938,8.244-4.29887,9.41613-12.47747.49945-19.97964-6.05246-19.55482-15.89528-24.75939-21.56951-9.50911-14.16419-9.50911-14.16419z" fill="#fff" stroke="#b8b8b8"/>
<path d="m297.59452,249.45129c-1.29508-2.38606-.64923-6.55249 2.74737-9.66811s6.54894-11.36815 10.71525-10.72227 6.15082,8.65407 12.86713,15.00237 23.2244,23.37198 30.02103,27.85964 8.05156,7.80404 8.82127,11.56552-.32123,7.44267-3.19246,9.18286-5.70234,2.55008-15.69481-3.47361-28.88656-21.75225-34.2275-27.57516-12.05728-12.17124-12.05728-12.17124z" fill="#fff" stroke="#b8b8b8"/>
<path d="m358.89432,189.64873c3.88185-3.56069 7.8474,1.73682 11.89327,5.17368s26.33993,26.76868 31.2358,32.10635 12.25803,7.51957 11.57203,12.61632 2.02463,7.07788-2.3023,10.15335-11.80956,3.68457-17.59557-2.62358-25.85472-27.21378-29.90058-30.65064-11.32774-7.47941-13.55312-9.90562-5.90648-3.51718-1.05416-7.96806l9.70463-8.9018z" fill="#fff" stroke="#b8b8b8"/>
<path d="m415.3486,155.73488c4.73185-1.65989 8.85802-.0836 14.68419,5.29413s28.20056,26.84899 31.3161,30.24569 7.40572,11.97047 6.75988,16.13688-6.02354,9.99273-11.08002,8.37638-11.97356-3.313-15.77851-12.33185-23.14408-25.23265-26.70472-29.11458-7.92771.12382-11.48833-3.7581-4.37048-6.71308.40153-9.30332 11.88988-5.54523 11.88988-5.54523z" fill="#fff" stroke="#b8b8b8"/>
<path d="m266.21508,274.66075c4.32692-3.07546 4.53109,2.99177 8.57695,6.42863s25.61038,22.07687 32.24642,30.28586 10.68187,11.64582 8.0148,19.45326-3.5974,7.76729-12.73988,3.64441-17.47852-16.13349-25.53009-23.93752-15.69821-14.19252-20.14898-19.04495-2.4697-7.56312.44168-10.23365 9.1391-6.59604 9.1391-6.59604z" fill="#fff" stroke="#b8b8b8"/>
<path d="m466.02023,126.23175c7.11788-2.955 11.80958-3.68457 16.30051.23753s31.9218,27.00961 35.40212,32.75222 7.32542,13.83114 5.74927,17.95741 .004,10.7189-11.3645,4.16978-18.20466-10.10639-23.06038-16.3744-9.43035-19.04834-16.67206-24.02123-9.18264-3.19254-11.89328-5.17366 1.2917-8.33285 1.2917-8.33285z" fill="#fff" stroke="#b8b8b8"/>
<path d="m218.4616,322.93114c3.39663-3.11561 2.9114-2.67053 8.25234,3.15239s7.0811,8.69421 14.64744,16.94336 10.39742,7.43927 15.73836,13.26217 9.91218,7.88437 12.50236,12.65649 3.03523,5.25737.93368,10.75904-12.3751,5.99033-23.13728-3.79485-31.76118-30.73093-35.28167-35.54321-1.90417-9.86888.48185-11.16399 5.86292-6.2714 5.86292-6.2714z" fill="#fff" stroke="#b8b8b8"/>
</svg>
